<?xml version="1.0" encoding="utf-8"?>
<!-- Generator: Adobe Illustrator 25.2.0, SVG Export Plug-In . SVG Version: 6.00 Build 0)  -->
<svg version="1.1" id="Layer_1" xmlns="http://www.w3.org/2000/svg" xmlns:xlink="http://www.w3.org/1999/xlink" x="0px" y="0px"
	 viewBox="0 0 22 23" style="enable-background:new 0 0 22 23;" xml:space="preserve">
<style type="text/css">
	.st0{fill:url(#SVGID_1_);}
	.st1{fill:#EC2227;}
	.st2{fill:url(#SVGID_2_);}
	.st3{fill:#0D0D0D;}
	.st4{fill:#010101;}
	.st5{fill:url(#SVGID_3_);}
	.st6{fill:url(#SVGID_4_);}
</style>
<g>
	<g>
		<linearGradient id="SVGID_1_" gradientUnits="userSpaceOnUse" x1="-18.0826" y1="-9.646" x2="16.3749" y2="17.7702">
			<stop  offset="0" style="stop-color:#C3C3C3"/>
			<stop  offset="0.2634" style="stop-color:#EFEFEF"/>
			<stop  offset="0.2977" style="stop-color:#F2F2F2"/>
			<stop  offset="0.4923" style="stop-color:#FFFFFF"/>
			<stop  offset="0.7074" style="stop-color:#E5E5E5"/>
			<stop  offset="0.7576" style="stop-color:#DEDEDE"/>
			<stop  offset="0.8327" style="stop-color:#D6D6D6"/>
			<stop  offset="0.8617" style="stop-color:#D1D1D1"/>
			<stop  offset="0.9027" style="stop-color:#CACACA"/>
			<stop  offset="0.9649" style="stop-color:#B5B5B5"/>
			<stop  offset="1" style="stop-color:#A6A6A6"/>
		</linearGradient>
		<path class="st0" d="M16.4,18c0.1,0.4-0.1,0.8-0.5,0.9l-10,2.5c-0.4,0.1-0.8-0.1-0.9-0.5L1,5.3C0.9,4.9,1.1,4.5,1.5,4.4l10-2.5
			c0.4-0.1,0.8,0.1,0.9,0.5L16.4,18z"/>
		<g>
			<path class="st1" d="M2.5,6.3L2.5,6.3L2.1,6.5l0-0.1l0.2,0l0.1-1.3l0.1,0l0.7,1.1l0.2,0l0,0.1L2.9,6.3l0-0.1l0.2,0L2.8,5.9L2.4,6
				l0,0.4L2.5,6.3z M2.4,5.3L2.4,5.9l0.4-0.1L2.4,5.3L2.4,5.3z"/>
		</g>
		<path class="st1" d="M2.9,7c0,0,0-0.3,0.3-0.3c0.3-0.1,0.5,0.2,0.3,0.6C3.4,7.6,3.2,7.8,3.1,7.9C3,7.8,2.8,7.7,2.5,7.6
			c-0.3-0.2-0.3-0.6,0-0.7C2.8,6.8,2.9,7,2.9,7z"/>
	</g>
	<path class="st1" d="M8.3,10.1c0,0,0.2-1.2,1.3-1.5c1.2-0.3,2.3,1.1,1.5,2.8c-0.6,1.2-1.4,2.1-1.9,2.6c-0.6-0.2-1.8-0.6-2.9-1.4
		c-1.5-1.1-1.2-2.9,0-3.2C7.6,9.2,8.3,10.1,8.3,10.1z"/>
	<g>
		<path class="st1" d="M14.8,16.9L14.8,16.9l0.4-0.2l0,0.1l-0.2,0L15,18.2l-0.1,0l-0.7-1.1l-0.2,0l0-0.1l0.5-0.1l0,0.1l-0.2,0
			l0.2,0.3l0.4-0.1l0-0.4L14.8,16.9z M14.9,17.9l0.1-0.5l-0.4,0.1L14.9,17.9L14.9,17.9z"/>
	</g>
	<path class="st1" d="M14.4,16.2c0,0,0,0.3-0.3,0.3c-0.3,0.1-0.5-0.2-0.3-0.6c0.1-0.3,0.3-0.5,0.4-0.6c0.1,0,0.4,0.1,0.6,0.3
		c0.3,0.2,0.3,0.6,0,0.7C14.6,16.5,14.4,16.2,14.4,16.2z"/>
	<linearGradient id="SVGID_2_" gradientUnits="userSpaceOnUse" x1="-7.6717" y1="-8.3083" x2="17.298" y2="18.2095">
		<stop  offset="0" style="stop-color:#C3C3C3"/>
		<stop  offset="0.2634" style="stop-color:#EFEFEF"/>
		<stop  offset="0.2977" style="stop-color:#F2F2F2"/>
		<stop  offset="0.4923" style="stop-color:#FFFFFF"/>
		<stop  offset="0.7074" style="stop-color:#E5E5E5"/>
		<stop  offset="0.7576" style="stop-color:#DEDEDE"/>
		<stop  offset="0.8327" style="stop-color:#D6D6D6"/>
		<stop  offset="0.8617" style="stop-color:#D1D1D1"/>
		<stop  offset="0.9027" style="stop-color:#CACACA"/>
		<stop  offset="0.9649" style="stop-color:#B5B5B5"/>
		<stop  offset="1" style="stop-color:#A6A6A6"/>
	</linearGradient>
	<path class="st2" d="M17.2,18.2c0,0.4-0.2,0.8-0.7,0.8L6.3,20.2c-0.4,0-0.8-0.2-0.8-0.7l-1.9-16c0-0.4,0.2-0.8,0.7-0.8l10.2-1.2
		c0.4,0,0.8,0.2,0.8,0.7L17.2,18.2z"/>
	<g>
		<g>
			<path class="st3" d="M15.8,17L15.8,17l0.4-0.1l0,0.1l-0.2,0l-0.3,1.3l-0.1,0l-0.6-1.2l-0.2,0l0-0.1l0.5-0.1l0,0.1l-0.2,0l0.2,0.4
				l0.4-0.1L16,17L15.8,17z M15.8,18l0.1-0.5l-0.4,0L15.8,18L15.8,18z"/>
		</g>
		<path class="st4" d="M15.2,16.1c0,0,0.1,0,0.1,0c-0.1,0.1-0.1,0.2-0.1,0.3c0,0.2,0.2,0.3,0.4,0.3c0.2,0,0.3-0.2,0.3-0.4
			c0-0.1-0.1-0.2-0.1-0.2c0,0,0.1,0,0.1,0c0.2,0,0.3-0.2,0.3-0.4c0-0.2-0.2-0.3-0.4-0.3c-0.1,0-0.3,0.1-0.3,0.3c0-0.1,0-0.4,0.1-0.5
			l-0.3,0c0.1,0.1,0.1,0.4,0.2,0.5c-0.1-0.1-0.2-0.2-0.3-0.2c-0.2,0-0.3,0.2-0.3,0.4C14.8,16,15,16.2,15.2,16.1z"/>
	</g>
	<path class="st4" d="M11.7,9.5c-0.2,0-0.4,0.1-0.5,0.2c0.3-0.3,0.4-0.7,0.3-1.1c-0.1-0.8-0.8-1.3-1.5-1.2C9.2,7.5,8.7,8.2,8.8,8.9
		c0,0.4,0.3,0.8,0.6,1C9.2,9.9,9,9.8,8.8,9.9c-0.7,0.1-1.3,0.8-1.2,1.5c0.1,0.8,0.8,1.3,1.5,1.2c0.6-0.1,1.1-0.6,1.2-1.2
		c0,0.5-0.1,1.7-0.2,2.2l1.2-0.1c-0.3-0.5-0.6-1.6-0.7-2.1c0.2,0.5,0.8,0.9,1.4,0.8c0.8-0.1,1.3-0.8,1.2-1.5
		C13.1,10,12.5,9.4,11.7,9.5z"/>
	<g>
		<g>
			<path class="st3" d="M5,4.8L5,4.8L4.5,4.9l0-0.1l0.2,0L5,3.5l0.1,0l0.6,1.2l0.2,0l0,0.1L5.3,4.8l0-0.1l0.2,0L5.3,4.4L4.9,4.4
				L4.8,4.8L5,4.8z M5,3.8L4.9,4.3l0.4,0L5,3.8L5,3.8z"/>
		</g>
		<path class="st4" d="M5.6,5.6c0,0-0.1,0-0.1,0c0.1-0.1,0.1-0.2,0.1-0.3c0-0.2-0.2-0.3-0.4-0.3C5,5.2,4.9,5.3,4.9,5.5
			C5,5.6,5,5.7,5.1,5.7c0,0-0.1,0-0.1,0c-0.2,0-0.3,0.2-0.3,0.4c0,0.2,0.2,0.3,0.4,0.3c0.1,0,0.3-0.1,0.3-0.3c0,0.1,0,0.4-0.1,0.5
			l0.3,0C5.5,6.5,5.4,6.2,5.4,6.1c0.1,0.1,0.2,0.2,0.3,0.2C5.9,6.3,6,6.1,6,5.9C6,5.8,5.8,5.6,5.6,5.6z"/>
	</g>
	<linearGradient id="SVGID_3_" gradientUnits="userSpaceOnUse" x1="-0.5358" y1="-7.3535" x2="17.9917" y2="19.4638">
		<stop  offset="0" style="stop-color:#C3C3C3"/>
		<stop  offset="0.2634" style="stop-color:#EFEFEF"/>
		<stop  offset="0.2977" style="stop-color:#F2F2F2"/>
		<stop  offset="0.4923" style="stop-color:#FFFFFF"/>
		<stop  offset="0.7074" style="stop-color:#E5E5E5"/>
		<stop  offset="0.7576" style="stop-color:#DEDEDE"/>
		<stop  offset="0.8327" style="stop-color:#D6D6D6"/>
		<stop  offset="0.8617" style="stop-color:#D1D1D1"/>
		<stop  offset="0.9027" style="stop-color:#CACACA"/>
		<stop  offset="0.9649" style="stop-color:#B5B5B5"/>
		<stop  offset="1" style="stop-color:#A6A6A6"/>
	</linearGradient>
	<path class="st5" d="M17.6,19.4c0,0.4-0.4,0.7-0.8,0.7L6.6,19.5c-0.4,0-0.7-0.4-0.7-0.8L6.7,2.7C6.7,2.3,7,1.9,7.5,2l10.3,0.5
		c0.4,0,0.7,0.4,0.7,0.8L17.6,19.4z"/>
	<g>
		<g>
			<path class="st1" d="M16.5,17.9L16.5,17.9l0.4,0l0,0.1l-0.2,0l-0.5,1.2l-0.1,0l-0.4-1.3l-0.2,0l0-0.1l0.6,0l0,0.1l-0.2,0l0.1,0.4
				l0.4,0l0.2-0.4L16.5,17.9z M16.3,18.9l0.2-0.5l-0.4,0L16.3,18.9L16.3,18.9z"/>
		</g>
		<path class="st1" d="M16.2,17.5c0,0-0.2-0.5-0.6-0.9c0.4-0.4,0.7-0.8,0.7-0.8s0.2,0.5,0.6,0.9C16.5,17,16.2,17.5,16.2,17.5z"/>
	</g>
	<path class="st1" d="M12.4,7.4c0,0,1,1.9,2.3,3.6c-1.5,1.5-2.7,3.3-2.7,3.3s-1-1.9-2.3-3.6C11.2,9.2,12.4,7.4,12.4,7.4z"/>
	<g>
		<g>
			<path class="st1" d="M7.8,4.1L7.8,4.1l-0.4,0l0-0.1l0.2,0l0.5-1.2l0.1,0l0.4,1.3l0.2,0l0,0.1l-0.6,0l0-0.1l0.2,0L8.2,3.7l-0.4,0
				L7.7,4.1L7.8,4.1z M8.1,3.2L7.8,3.6l0.4,0L8.1,3.2L8.1,3.2z"/>
		</g>
		<path class="st1" d="M8.1,4.5c0,0,0.2,0.5,0.6,0.9C8.3,5.8,8,6.2,8,6.2S7.7,5.8,7.4,5.3C7.8,5,8.1,4.5,8.1,4.5z"/>
	</g>
	<linearGradient id="SVGID_4_" gradientUnits="userSpaceOnUse" x1="4.1008" y1="-8.9059" x2="18.7328" y2="21.6065">
		<stop  offset="0" style="stop-color:#C3C3C3"/>
		<stop  offset="0.2634" style="stop-color:#EFEFEF"/>
		<stop  offset="0.2977" style="stop-color:#F2F2F2"/>
		<stop  offset="0.4923" style="stop-color:#FFFFFF"/>
		<stop  offset="0.7074" style="stop-color:#E5E5E5"/>
		<stop  offset="0.7576" style="stop-color:#DEDEDE"/>
		<stop  offset="0.8327" style="stop-color:#D6D6D6"/>
		<stop  offset="0.8617" style="stop-color:#D1D1D1"/>
		<stop  offset="0.9027" style="stop-color:#CACACA"/>
		<stop  offset="0.9649" style="stop-color:#B5B5B5"/>
		<stop  offset="1" style="stop-color:#A6A6A6"/>
	</linearGradient>
	<path class="st6" d="M18.1,20.2c-0.1,0.4-0.5,0.7-0.9,0.6L7.1,19c-0.4-0.1-0.7-0.5-0.6-0.9L9.4,2.3c0.1-0.4,0.5-0.7,0.9-0.6
		l10.1,1.9C20.8,3.6,21.1,4,21,4.4L18.1,20.2z"/>
	<g>
		<g>
			<path class="st3" d="M17.2,18.6L17.2,18.6l0.4,0l0,0.1l-0.2,0l-0.7,1.1l-0.1,0l-0.2-1.3l-0.2,0l0-0.1l0.5,0.1l0,0.1l-0.2,0
				l0.1,0.4l0.4,0.1l0.2-0.4L17.2,18.6z M16.8,19.6l0.3-0.5L16.7,19L16.8,19.6L16.8,19.6z"/>
		</g>
		<path class="st3" d="M16.6,17.6c0.2,0.2,0.3,0.3,0.4,0.6c0.2-0.2,0.3-0.3,0.6-0.4c0.4-0.2,0.3-0.6,0-0.7c-0.2,0-0.3,0.1-0.4,0.1
			c0-0.1,0.1-0.3,0.2-0.4l-0.2,0c0,0.1,0,0.3,0,0.4c0-0.1-0.1-0.2-0.3-0.3C16.6,16.9,16.3,17.3,16.6,17.6z"/>
	</g>
	<path class="st3" d="M16.1,10.4c-0.8-1-1.3-1.4-1.6-2.7c-0.8,1-1.4,1.3-2.5,1.9c-1.8,0.9-1.2,2.7,0,3c0.7,0.2,1.3-0.3,1.6-0.6
		c-0.1,0.4-0.4,1.2-0.7,1.6l1,0.2c-0.1-0.4-0.1-1.2-0.1-1.7c0.1,0.4,0.5,1,1.3,1.1C16.3,13.3,17.4,11.9,16.1,10.4z"/>
	<g>
		<g>
			<path class="st3" d="M10.4,3.9L10.4,3.9l-0.4,0l0-0.1l0.2,0l0.7-1.1l0.1,0L11.1,4l0.2,0l0,0.1L10.7,4l0-0.1l0.2,0l-0.1-0.4
				l-0.4-0.1l-0.2,0.4L10.4,3.9z M10.7,2.9l-0.3,0.5l0.4,0.1L10.7,2.9L10.7,2.9z"/>
		</g>
		<path class="st3" d="M10.9,4.9c-0.2-0.2-0.3-0.3-0.4-0.6c-0.2,0.2-0.3,0.3-0.6,0.4c-0.4,0.2-0.3,0.6,0,0.7c0.2,0,0.3-0.1,0.4-0.1
			c0,0.1-0.1,0.3-0.2,0.4l0.2,0c0-0.1,0-0.3,0-0.4c0,0.1,0.1,0.2,0.3,0.3C11,5.6,11.2,5.2,10.9,4.9z"/>
	</g>
</g>
</svg>
